HIERARCHY
ROOT Hips
{
	OFFSET -3.958830 18.904000 13.208200
	CHANNELS 6 Xposition Yposition Zposition Zrotation Yrotation Xrotation 
	JOINT LHipJoint
	{
		OFFSET 0.000000 0.000000 0.000000
		CHANNELS 3 Zrotation Yrotation Xrotation
		JOINT LeftUpLeg
		{
			OFFSET 1.800000 -1.400000 0.085000
			CHANNELS 3 Zrotation Yrotation Xrotation
			JOINT LeftLeg
			{
				OFFSET 2.215000 -6.000000 0.000000
				CHANNELS 3 Zrotation Yrotation Xrotation
				JOINT LeftFoot
				{
					OFFSET 2.500000 -6.900000 0.000000
					CHANNELS 3 Zrotation Yrotation Xrotation
					JOINT LeftToeBase
					{
						OFFSET 0.200000 -0.500000 1.950000
						CHANNELS 3 Zrotation Yrotation Xrotation
						End Site
						{
							OFFSET 0.000000 0.000000 0.000000
						}
					}
				}
			}
		}
	}
	JOINT RHipJoint
	{
		OFFSET 0.000000 0.000000 0.000000
		CHANNELS 3 Zrotation Yrotation Xrotation
		JOINT RightUpLeg
		{
			OFFSET -1.800000 -1.400000 0.085000
			CHANNELS 3 Zrotation Yrotation Xrotation
			JOINT RightLeg
			{
				OFFSET -2.215000 -6.000000 0.000000
				CHANNELS 3 Zrotation Yrotation Xrotation
				JOINT RightFoot
				{
					OFFSET -2.500000 -6.900000 0.000000
					CHANNELS 3 Zrotation Yrotation Xrotation
					JOINT RightToeBase
					{
						OFFSET -0.200000 -0.500000 1.950000
						CHANNELS 3 Zrotation Yrotation Xrotation
						End Site
						{
							OFFSET 0.000000 0.000000 0.000000
						}
					}
				}
			}
		}
	}
	JOINT LowerBack
	{
		OFFSET 0.000000 0.000000 0.000000
		CHANNELS 3 Zrotation Yrotation Xrotation
		JOINT Spine
		{
			OFFSET -0.087000 1.940000 -0.288900
			CHANNELS 3 Zrotation Yrotation Xrotation
			JOINT Spine1
			{
				OFFSET 0.000000 1.950000 0.060000
				CHANNELS 3 Zrotation Yrotation Xrotation
				JOINT Neck
				{
					OFFSET 0.000000 0.000000 0.000000
					CHANNELS 3 Zrotation Yrotation Xrotation
					JOINT Neck1
					{
						OFFSET 0.000000 1.600000 0.340000
						CHANNELS 3 Zrotation Yrotation Xrotation
						JOINT Head
						{
							OFFSET 0.000000 1.667000 -0.240000
							CHANNELS 3 Zrotation Yrotation Xrotation
							End Site
							{
								OFFSET 0.000000 0.000000 0.000000
							}
						}
					}
				}
				JOINT LeftShoulder
				{
					OFFSET 0.000000 0.000000 0.000000
					CHANNELS 3 Zrotation Yrotation Xrotation
					JOINT LeftArm
					{
						OFFSET 2.700000 1.550000 -0.730000
						CHANNELS 3 Zrotation Yrotation Xrotation
						JOINT LeftForeArm
						{
							OFFSET 5.450000 0.000000 0.000000
							CHANNELS 3 Zrotation Yrotation Xrotation
							JOINT LeftHand
							{
								OFFSET 3.450000 0.000000 0.000000
								CHANNELS 3 Zrotation Yrotation Xrotation
								JOINT LeftHandIndex1
								{
									OFFSET 0.750000 0.000000 0.000000
									CHANNELS 3 Zrotation Yrotation Xrotation
									End Site
									{
										OFFSET 0.000000 0.000000 0.000000
									}
								}
							}
						}
					}
				}
				JOINT RightShoulder
				{
					OFFSET 0.000000 0.000000 0.000000
					CHANNELS 3 Zrotation Yrotation Xrotation
					JOINT RightArm
					{
						OFFSET -2.700000 1.550000 -0.730000
						CHANNELS 3 Zrotation Yrotation Xrotation
						JOINT RightForeArm
						{
							OFFSET -5.450000 0.000000 0.000000
							CHANNELS 3 Zrotation Yrotation Xrotation
							JOINT RightHand
							{
								OFFSET -3.450000 0.000000 0.000000
								CHANNELS 3 Zrotation Yrotation Xrotation
								JOINT RightHandIndex1
								{
									OFFSET -0.750000 0.000000 0.000000
									CHANNELS 3 Zrotation Yrotation Xrotation
									End Site
									{
										OFFSET 0.000000 0.000000 0.000000
									}
								}
							}
						}
					}
				}
			}
		}
	}
}
MOTION
Frames: 12
Frame Time: 0.016667
0.218310 16.699730 -0.742800 -3.531224 -1.396870 9.216873 -15.077991 13.410400 3.164697 12.506989 -1.177017 -9.757868 -7.154801 4.450685 2.874594 0.026294 3.929040 3.422579 0.310480 0.007930 0.362320 18.146476 -10.915926 2.837787 -11.007729 0.656652 -10.652869 4.724626 -3.605567 3.642283 -0.257706 -3.303657 3.259203 -0.132230 0.246380 0.384730 -3.488217 -1.762447 -7.902181 9.575095 0.432972 6.298768 -2.166542 1.196944 -8.349188 2.839813 -0.520345 -8.643243 -2.871449 0.779563 35.633661 -4.491440 3.119840 0.140570 -11.467874 6.475282 0.844339 -7.437432 19.252453 -2.057762 22.601972 -27.762078 -2.597235 -3.741838 3.318973 0.321160 0.155350 0.069680 0.214410 5.890099 -4.584620 5.388819 16.563533 -17.424405 -5.397714 -32.789699 22.072598 -3.507187 2.606863 -1.817648 0.003850 -0.105570 -0.225250 -0.001880 
0.218710 16.701210 -0.740200 -3.537006 -1.379297 9.217259 -15.069186 13.410879 3.163003 12.483869 -1.175805 -9.735107 -7.119501 4.445686 2.853586 0.024470 3.928387 3.428029 0.303760 -0.002460 0.361820 18.155294 -10.915480 2.842680 -10.984791 0.650784 -10.590004 4.688696 -3.592023 3.553922 -0.257359 -3.300502 3.262826 -0.138010 0.251540 0.376710 -3.514426 -1.763579 -7.904272 9.764653 0.404550 6.231749 -2.351823 1.174490 -8.265611 2.810207 -0.636605 -8.771748 -3.127490 0.834776 35.832378 -4.340420 3.007530 0.263930 -11.251991 6.358012 0.910631 -7.452843 19.133535 -2.072865 21.769102 -26.853439 -2.357811 -3.740192 3.300183 0.325390 0.152690 0.065540 0.211680 5.702485 -4.398889 5.509321 16.610206 -17.378284 -5.351439 -31.951350 21.273429 -3.229607 2.616172 -1.799211 -0.003200 -0.096130 -0.221120 -0.003140 
0.219430 16.699620 -0.734650 -3.567261 -1.433888 9.257245 -15.054067 13.392481 3.161491 12.484616 -1.174063 -9.644793 -7.158954 4.437166 2.718992 0.032645 3.937918 3.430813 0.300550 -0.008820 0.360550 18.174700 -10.912814 2.840300 -11.011126 0.649533 -10.579459 4.730237 -3.595826 3.515634 -0.258080 -3.305147 3.262137 -0.142740 0.257330 0.376030 -3.564837 -1.740015 -7.888210 10.095110 0.387004 6.010222 -2.667029 1.130277 -7.914952 2.770059 -0.793307 -8.964905 -3.429535 0.914970 35.836272 -4.177380 2.904480 0.456500 -10.822187 6.157064 1.053639 -7.650629 18.901275 -2.160428 20.422121 -25.117310 -1.988337 -3.742649 3.282787 0.323710 0.153100 0.062870 0.212920 5.296310 -4.126994 5.690916 16.858289 -17.137342 -5.288572 -30.458828 19.557087 -2.744150 2.636978 -1.780027 -0.003680 -0.093340 -0.220490 -0.000640 
0.222400 16.695430 -0.727440 -3.630788 -1.489295 9.316934 -15.041662 13.370477 3.156009 12.497560 -1.170372 -9.539823 -7.155356 4.418591 2.559339 0.038015 3.945290 3.429807 0.293100 -0.015810 0.351660 18.193299 -10.907110 2.836798 -11.043334 0.648126 -10.565169 4.848603 -3.614189 3.489283 -0.254179 -3.319480 3.259065 -0.144670 0.261740 0.374510 -3.610475 -1.713149 -7.862876 10.411300 0.393690 5.703595 -2.882394 1.095988 -7.426197 2.737393 -0.903605 -9.211104 -3.621870 0.988343 35.707827 -4.058810 2.853520 0.732350 -10.411367 5.825533 1.275562 -7.909937 18.761380 -2.253282 19.157891 -22.867667 -1.626012 -3.754078 3.260181 0.317500 0.157040 0.056820 0.211990 4.906461 -3.762611 5.907383 17.044723 -16.738678 -5.125966 -28.643244 16.773016 -2.103073 2.671223 -1.754731 -0.005050 -0.094930 -0.216610 0.001270 
0.225830 16.692300 -0.717520 -3.662202 -1.511525 9.359513 -15.036235 13.357134 3.149921 12.466112 -1.156004 -9.412083 -7.152279 4.405562 2.422578 0.038407 3.958528 3.426533 0.275550 -0.030110 0.326640 18.204830 -10.895826 2.831667 -11.128752 0.639514 -10.504410 4.997517 -3.649428 3.460113 -0.248762 -3.347086 3.252184 -0.150250 0.276010 0.374630 -3.636601 -1.712032 -7.836553 10.613757 0.387402 5.366440 -2.991032 1.040848 -6.947496 2.720337 -1.031247 -9.479338 -3.843930 1.150389 35.562415 -3.933990 2.864470 1.135980 -10.076306 5.461872 1.520949 -8.150843 18.729097 -2.314638 17.891805 -20.511971 -1.311514 -3.774930 3.235177 0.311320 0.166840 0.045170 0.211250 4.596429 -3.362337 6.146544 17.035254 -16.499592 -4.908036 -26.769089 13.996801 -1.517065 2.702778 -1.723976 -0.009990 -0.095130 -0.202040 0.005870 
0.227420 16.687770 -0.707780 -3.713765 -1.519451 9.384990 -15.032421 13.332269 3.147937 12.531595 -1.146077 -9.264341 -7.252067 4.407742 2.234018 0.040225 3.999136 3.419686 0.259530 -0.049130 0.310100 18.217758 -10.882804 2.819975 -11.150874 0.629965 -10.422816 5.046336 -3.669749 3.432459 -0.244138 -3.372069 3.246116 -0.155490 0.295720 0.379380 -3.662365 -1.699473 -7.804619 10.799175 0.380854 5.032238 -3.108817 0.977278 -6.387735 2.708233 -1.092497 -9.686340 -3.919541 1.235758 35.262724 -3.944910 2.901590 1.516450 -9.874636 5.097721 1.738330 -8.150801 18.672001 -2.283082 16.672569 -17.927802 -1.038124 -3.807050 3.203646 0.305490 0.181240 0.033490 0.212580 4.404319 -3.030445 6.347910 16.988541 -16.281281 -4.673032 -24.892457 11.270724 -1.013400 2.735036 -1.690395 -0.018300 -0.091240 -0.189510 0.008720 
0.229100 16.686140 -0.701060 -3.728560 -1.466111 9.322761 -15.023380 13.320210 3.143475 12.531372 -1.131273 -9.116901 -7.265074 4.403008 2.134556 0.044826 4.008752 3.417605 0.255400 -0.050060 0.304680 18.231010 -10.878557 2.816641 -11.225832 0.602614 -10.277642 5.106176 -3.691109 3.382700 -0.248832 -3.393799 3.238117 -0.156690 0.298320 0.379550 -3.696735 -1.691394 -7.789661 11.035229 0.316300 4.883629 -3.403631 0.894467 -5.945978 2.709662 -1.069998 -9.877253 -3.888369 1.312107 35.294518 -3.850570 2.944350 1.578070 -9.914269 4.682883 1.938035 -7.780592 18.710041 -2.149283 15.678812 -15.472929 -0.815105 -3.824359 3.175521 0.303940 0.182800 0.033100 0.211490 4.403610 -2.717979 6.515485 17.087118 -16.157223 -4.486006 -23.651331 8.520418 -0.571280 2.777354 -1.660554 -0.017980 -0.091010 -0.186560 0.010820 
0.229180 16.683100 -0.694060 -3.724933 -1.417654 9.271687 -15.014662 13.296015 3.129320 12.518851 -1.118735 -8.947746 -7.254287 4.393650 2.021921 0.041568 4.032655 3.416473 0.244310 -0.063310 0.292050 18.248759 -10.869194 2.813321 -11.312099 0.576647 -10.098167 5.172464 -3.708434 3.236685 -0.249170 -3.428281 3.230823 -0.159400 0.315780 0.380440 -3.737469 -1.669780 -7.756532 11.243184 0.258515 4.642937 -3.680507 0.794997 -5.365517 2.658402 -1.102844 -9.995879 -3.917304 1.416489 35.070290 -3.675030 2.907560 1.776080 -9.957134 4.353696 2.127289 -7.596640 18.754326 -2.037088 15.124833 -13.343640 -0.683796 -3.855250 3.146141 0.300530 0.193910 0.021680 0.211570 4.510822 -2.481493 6.624059 17.271697 -16.106172 -4.353093 -22.757329 5.894458 -0.176632 2.811979 -1.635128 -0.025750 -0.083500 -0.175110 0.011970 
0.230090 16.679360 -0.688870 -3.790560 -1.341409 9.183121 -15.008660 13.267436 3.116353 12.627398 -1.103590 -8.757285 -7.301835 4.404015 1.893982 0.031742 4.081532 3.407352 0.230390 -0.083960 0.283120 18.266430 -10.846977 2.810478 -11.363296 0.546839 -9.858260 5.322779 -3.733855 3.048514 -0.248309 -3.467278 3.221534 -0.160380 0.334530 0.376880 -3.775157 -1.663411 -7.722726 11.529566 0.185821 4.435008 -3.847040 0.690082 -4.708632 2.603470 -1.222648 -10.046563 -4.104797 1.530904 34.792606 -3.588380 2.869770 1.883190 -10.095193 4.132727 2.261677 -7.633127 18.792035 -1.966479 14.999710 -11.574779 -0.611724 -3.889343 3.111967 0.301210 0.204680 0.007050 0.208250 4.729105 -2.291293 6.690661 17.298906 -16.127180 -4.238201 -22.119645 3.729496 0.146170 2.837824 -1.610710 -0.042520 -0.068960 -0.159830 0.007740 
0.230150 16.675280 -0.683820 -3.855628 -1.290374 9.128815 -15.001009 13.237124 3.103549 12.731807 -1.090370 -8.582683 -7.352499 4.413603 1.754332 0.032332 4.124271 3.404294 0.216250 -0.100600 0.273170 18.285958 -10.828738 2.802590 -11.407536 0.520232 -9.695354 5.487511 -3.764229 2.961617 -0.245430 -3.500669 3.213804 -0.162790 0.357470 0.372270 -3.817571 -1.649119 -7.682082 11.849342 0.119617 4.226594 -4.011531 0.592629 -4.083012 2.520351 -1.410307 -10.043527 -4.394782 1.642736 34.363174 -3.472940 2.793930 2.068680 -10.218508 4.037053 2.350858 -7.796906 18.810037 -1.939727 15.071454 -10.190602 -0.558771 -3.921655 3.086216 0.292970 0.216920 -0.009200 0.206780 4.988547 -2.172291 6.723401 17.379072 -16.288510 -4.173469 -21.773280 2.071371 0.393515 2.861270 -1.596109 -0.054410 -0.053330 -0.147430 0.009660 
0.231300 16.671470 -0.678490 -3.937057 -1.256045 9.109983 -14.994035 13.217711 3.092337 12.797351 -1.085281 -8.447419 -7.298522 4.400900 1.611345 0.034227 4.145318 3.407242 0.204740 -0.112710 0.266480 18.302038 -10.814570 2.796621 -11.410467 0.499673 -9.579742 5.604521 -3.782701 2.902116 -0.240259 -3.522533 3.212299 -0.165400 0.375110 0.364520 -3.853348 -1.643885 -7.649533 12.170426 0.060249 4.051449 -4.124558 0.512502 -3.676341 2.454699 -1.603697 -10.013751 -4.712827 1.733159 34.043919 -3.431280 2.746240 2.288970 -10.289923 4.086702 2.379182 -8.043008 18.815414 -1.947755 15.336297 -9.173885 -0.513029 -3.947628 3.065208 0.283340 0.226560 -0.024050 0.204770 5.166615 -2.163186 6.734860 17.499392 -16.524882 -4.143466 -21.533458 0.935550 0.569057 2.879783 -1.584940 -0.063370 -0.040220 -0.139400 0.011680 
0.232100 16.668980 -0.674880 -3.970205 -1.229756 9.077588 -14.992293 13.207429 3.080805 12.806772 -1.080484 -8.363244 -7.233844 4.388811 1.562960 0.034390 4.146798 3.410790 0.207150 -0.107750 0.264360 18.309914 -10.804782 2.794587 -11.435330 0.480991 -9.472612 5.672202 -3.789650 2.820119 -0.240928 -3.543666 3.209611 -0.161440 0.380580 0.361160 -3.868865 -1.643498 -7.626784 12.311156 0.023032 3.957579 -4.102388 0.450733 -3.387027 2.408752 -1.705161 -9.959046 -4.879706 1.773183 33.855027 -3.417640 2.717190 2.361680 -10.359793 4.182840 2.370143 -8.270043 18.815386 -1.972845 15.623773 -8.496270 -0.478144 -3.959713 3.060100 0.277360 0.231120 -0.030920 0.207030 5.323452 -2.244568 6.713951 17.584212 -16.749277 -4.110083 -21.319815 0.020786 0.708956 2.893863 -1.584084 -0.064080 -0.037770 -0.140880 0.013520 
